<svg viewBox="64 64 130 130" xmlns="http://www.w3.org/2000/svg" xmlns:xlink="http://www.w3.org/1999/xlink"><linearGradient id="a" gradientUnits="userSpaceOnUse" x1="107.061" x2="168.168" y1="104.95" y2="166.058"><stop offset=".006" stop-color="#3e2723" stop-opacity=".2"/><stop offset=".996" stop-color="#3e2723" stop-opacity="0"/></linearGradient><radialGradient id="b" cx="768.798" cy="1565.954" gradientTransform="matrix(.9836 0 0 .9658 -667.67 -1422.677)" gradientUnits="userSpaceOnUse" r="113.649"><stop offset="0" stop-color="#fff"/><stop offset=".01" stop-color="#fff" stop-opacity=".99"/><stop offset="1" stop-color="#fff" stop-opacity="0"/></radialGradient><path d="m183.6 128c0 2.2-.1 4.3-.4 6.4-2.9 24.7-22.8 44.4-47.8 47.7-2.4.3-4.9.5-7.4.5-30.7 0-55.6-24.4-55.6-54.6s24.9-54.7 55.6-54.7 55.6 24.5 55.6 54.7z" fill="#ff5252"/><path d="m183.5 135c-3.1 23.8-22 42.5-46 46.4l-27.2-26.9h11.6v-21.9h21.3v-10.2h-21.3v-11.6h27v-10.1z" fill="url(#a)"/><path d="m128 182c-30.6 0-55.5-24.3-55.6-54.3v.3c0 30.2 24.9 54.6 55.6 54.6s55.6-24.4 55.6-54.6v-.3c-.1 30-25 54.3-55.6 54.3z" fill="#3e2723" opacity=".2"/><path d="m128 74c30.6 0 55.5 24.3 55.6 54.3v-.3c0-30.2-24.9-54.6-55.6-54.6s-55.6 24.4-55.6 54.6v.3c.1-30 25-54.3 55.6-54.3z" fill="#fff" opacity=".2"/><path d="m148.2 110.6v-9.9h-37.9v54.6h11.4v-22.3h21.5v-10h-21.5v-12.4z" fill="#f5f5f5"/><path d="m110.3 100.7h37.9v.6h-37.9zm11.4 22.3h21.5v.6h-21.5z" fill="#fff" opacity=".4"/><path d="m110.3 155.5h11.5v.4h-10.9zm11.4-22.5h21.5v.6h-21.5zm0-22.4h26.6v.6h-26.6z" fill="#3e2723" opacity=".2"/><ellipse cx="128" cy="128" fill="url(#b)" fill-opacity=".1" rx="55.6" ry="54.6"/><path d="m67.3 68.4h121.4v119.2h-121.4z" fill="none"/></svg>
