<svg viewBox="0 0 75 75" xmlns="http://www.w3.org/2000/svg" xmlns:xlink="http://www.w3.org/1999/xlink"><g fill="#fff"><path d="m60.5 62.5h-12.32a1 1 0 0 1 -.9-.57l-17.42-36.43h-7.37a1 1 0 0 1 -1-1v-11a1 1 0 0 1 1-1h15.4a1 1 0 0 1 .9.57l17.34 36.43h4.37a1 1 0 0 1 1 1v11a1 1 0 0 1 -1 1zm-11.69-2h10.69v-9h-4a1 1 0 0 1 -.9-.57l-17.34-36.43h-13.76v9h7a1 1 0 0 1 .9.57z"/><path d="m27.48 62.5h-13a1 1 0 0 1 -.85-.47 1 1 0 0 1 -.05-1l13.6-28.41a1 1 0 0 1 .9-.57 1 1 0 0 1 .9.56l6.51 13.39a1 1 0 0 1 0 .87l-7.1 15a1 1 0 0 1 -.91.63zm-11.4-2h10.77l6.63-14-5.39-11.15z"/></g></svg>

