<svg viewBox="0 0 75 75" xmlns="http://www.w3.org/2000/svg" xmlns:xlink="http://www.w3.org/1999/xlink"><linearGradient id="a" gradientTransform="matrix(-.70710678 -.70710678 .70710678 -.70710678 -1769.67 -684.02)" gradientUnits="userSpaceOnUse" x1="-1788.05" x2="-1788.05" y1="692.67" y2="842.67"><stop offset="0" stop-color="#c8511b"/><stop offset="1" stop-color="#f90"/></linearGradient><path d="m0 0h75v75h-75z" fill="url(#a)"/><g fill="#fff"><path d="m60.5 62.5h-12.32a1 1 0 0 1 -.9-.57l-17.42-36.43h-7.37a1 1 0 0 1 -1-1v-11a1 1 0 0 1 1-1h15.4a1 1 0 0 1 .9.57l17.34 36.43h4.37a1 1 0 0 1 1 1v11a1 1 0 0 1 -1 1zm-11.69-2h10.69v-9h-4a1 1 0 0 1 -.9-.57l-17.34-36.43h-13.76v9h7a1 1 0 0 1 .9.57z"/><path d="m27.48 62.5h-13a1 1 0 0 1 -.85-.47 1 1 0 0 1 -.05-1l13.6-28.41a1 1 0 0 1 .9-.57 1 1 0 0 1 .9.56l6.51 13.39a1 1 0 0 1 0 .87l-7.1 15a1 1 0 0 1 -.91.63zm-11.4-2h10.77l6.63-14-5.39-11.15z"/></g></svg>

