<svg fill="none" viewBox="0 0 132 204" xmlns="http://www.w3.org/2000/svg"><g stroke="hsla(190, 80%, 50%, 1)"><path d="m52.4843 8.02904c7.9443 0 15.7294 2.17536 22.4938 6.27966 6.7639 4.1039 12.2404 9.9739 15.8323 16.9536 3.5916 6.9791 5.1618 14.8005 4.5417 22.6011-.62 7.8008-3.4071 15.286-8.0606 21.6276" stroke-linecap="round" stroke-width="14"/><path d="m76.4842 101.118c6.3131 0 12.5627 1.231 18.3915 3.622 5.8283 2.39 11.1203 5.892 15.5743 10.302s7.983 9.641 10.39 15.394c2.406 5.752 3.644 11.915 3.644 18.138 0 6.222-1.238 12.385-3.644 18.137-2.407 5.753-5.936 10.984-10.39 15.394s-9.746 7.912-15.5743 10.302c-5.8288 2.391-12.0784 3.622-18.3915 3.622" stroke-width="14"/><g stroke-linecap="round" stroke-linejoin="round"><g stroke-width="14"><path d="m7.11601 8.00417-.11184 187.91683"/><path d="m7.99978 7.91625 42.58092-.00133"/><path d="m8.00966 195.926 67.48424.093"/></g><path d="m5-5h24.8272" stroke-width="10" transform="matrix(.710616 .70358 -.710616 .70358 27 102.916)"/><path d="m5-5h24.8272" stroke-width="10" transform="matrix(.710616 -.70358 .710616 .70358 34 106.42)"/><path d="m35.173 101.011h41" stroke-width="14"/></g></g></svg>
