<svg width="1080" height="1080" viewBox="0 0 1080 1080" fill="none" xmlns="http://www.w3.org/2000/svg">
<path d="M492.49 212.934C520.039 212.934 547.035 220.478 570.492 234.71C593.948 248.941 612.938 269.297 625.394 293.5C637.848 317.702 643.293 344.824 641.143 371.873C638.993 398.924 629.328 424.88 613.191 446.871" stroke="#1AC4E6" stroke-width="48.7567" stroke-linecap="round"/>
<path d="M577.386 536.48C599.279 536.48 620.953 540.749 641.166 549.039C661.38 557.329 679.731 569.473 695.177 584.767C710.623 600.06 722.862 618.202 731.208 638.152C739.554 658.1 743.846 679.473 743.846 701.051C743.846 722.629 739.554 744.001 731.208 763.95C722.862 783.899 710.623 802.041 695.177 817.334C679.731 832.628 661.38 844.772 641.166 853.062C620.953 861.352 599.279 865.622 577.386 865.622" stroke="#1AC4E6" stroke-width="48.7567"/>
<line x1="336.781" y1="213.393" x2="336.393" y2="865.245" stroke="#1AC4E6" stroke-width="48.7567" stroke-linecap="round" stroke-linejoin="round"/>
<line x1="339.848" y1="212.908" x2="487.416" y2="212.904" stroke="#1AC4E6" stroke-width="48.7567" stroke-linecap="round" stroke-linejoin="round"/>
<line x1="339.883" y1="865.265" x2="573.86" y2="865.588" stroke="#1AC4E6" stroke-width="48.7567" stroke-linecap="round" stroke-linejoin="round"/>
<line x1="17.4131" y1="-17.4131" x2="103.43" y2="-17.4131" transform="matrix(0.710616 0.70358 -0.710616 0.70358 405.686 542.63)" stroke="#1AC4E6" stroke-width="34.8262" stroke-linecap="round" stroke-linejoin="round"/>
<line x1="17.4131" y1="-17.4131" x2="103.43" y2="-17.4131" transform="matrix(0.710616 -0.70358 0.710616 0.70358 429.974 554.787)" stroke="#1AC4E6" stroke-width="34.8262" stroke-linecap="round" stroke-linejoin="round"/>
<line x1="434.134" y1="535.928" x2="576.216" y2="535.928" stroke="#1AC4E6" stroke-width="48.7567" stroke-linecap="round" stroke-linejoin="round"/>
</svg>
